<?xml version="1.0" encoding="utf-8"?>
<!-- Generator: Adobe Illustrator 25.4.1, SVG Export Plug-In . SVG Version: 6.00 Build 0)  -->
<svg version="1.1" id="Layer_1" xmlns="http://www.w3.org/2000/svg" xmlns:xlink="http://www.w3.org/1999/xlink" x="0px" y="0px"
	 viewBox="0 0 320 100" style="enable-background:new 0 0 320 100;" xml:space="preserve">
<style type="text/css">
	.st0{fill:#010101;}
	.st1{fill:#2E3690;}
	.st2{fill:#16763C;}
</style>
<g>
	<path class="st0" d="M25.66,94.42L0,44.1h6.05l24.07,47.89h0.1L54.39,44.1h6.05L33.08,97.15h-2.86
		C28.09,97.15,26.58,96.24,25.66,94.42z"/>
	<path class="st0" d="M73.96,96.08c-0.95-0.71-1.43-1.69-1.43-2.96V44.1h47.82v3.64H78.36V68.2h38.8v3.64h-38.8v21.6h41.98v3.71
		H77.93C76.23,97.15,74.91,96.79,73.96,96.08z"/>
	<path class="st0" d="M153.64,47.74h-23.54V44.1H183v3.64h-23.54v49.41h-5.83L153.64,47.74L153.64,47.74z"/>
	<path class="st1" d="M215.45,46.83L189.8,97.15h6.05l24.07-47.89h0.1l24.17,47.89h6.05L222.88,44.1h-2.86
		C217.89,44.1,216.36,45.01,215.45,46.83z"/>
	<path class="st1" d="M316.38,99.57l-8.06-5.69c-4.38,2.57-9.54,3.86-15.48,3.86h-11.02c-4.73,0-8.89-0.77-12.46-2.31
		c-3.57-1.54-6.34-3.71-8.32-6.51c-1.98-2.81-2.97-6.03-2.97-9.66V61.99c0-3.68,1.01-6.92,3.02-9.7c2.01-2.78,4.84-4.94,8.48-6.48
		c3.64-1.54,7.83-2.31,12.57-2.31h11.02c4.73,0,8.92,0.77,12.57,2.31c3.64,1.54,6.45,3.7,8.43,6.48c1.98,2.78,2.97,6.01,2.97,9.7
		v17.21c0,4.65-1.73,8.64-5.19,11.97l8.06,5.69L316.38,99.57z M304.41,91.09l-11.02-7.8l3.61-2.65l10.81,7.66
		c2.34-2.52,3.5-5.56,3.5-9.1V61.99c0-4.44-1.68-8.02-5.04-10.73c-3.36-2.7-7.76-4.05-13.2-4.05h-10.81
		c-5.44,0-9.86,1.36-13.25,4.05c-3.39,2.7-5.09,6.28-5.09,10.73v17.27c0,4.39,1.65,7.95,4.93,10.65c3.29,2.7,7.65,4.06,13.1,4.06
		h10.71C297.16,93.96,301.08,93.01,304.41,91.09z"/>
</g>
<g>
	<path class="st2" d="M124.49,17.24c2.77-2.01,5.6-3.93,8.38-5.88c1.39-0.98,2.76-1.98,4.1-3c0.67-0.51,1.34-1.03,1.99-1.56
		c0.66-0.53,1.42-1.06,2.14-1.59c0.73-0.52,1.56-0.91,2.34-1.37c0.82-0.39,1.67-0.74,2.52-1.08c1.75-0.55,3.57-1,5.42-1.08
		c3.71-0.21,7.4,0.51,10.77,1.77c3.38,1.26,6.57,2.87,9.61,4.68c3.04,1.88,5.76,3.86,8.45,5.95c2.69,2.1,5.31,4.28,7.88,6.54
		c2.57,2.27,5.07,4.61,7.43,7.19l-0.3,0.42c-3.21-1.38-6.25-2.99-9.23-4.69c-2.98-1.7-5.92-3.46-8.78-5.33
		c-1.42-0.94-2.85-1.89-4.23-2.88c-0.7-0.49-1.37-1.01-2.03-1.49c-0.66-0.51-1.31-1.01-1.99-1.48c-2.63-1.97-5.38-3.79-8.32-5.1
		c-2.92-1.33-6.03-2.13-9.15-2.17c-1.56-0.07-3.11,0.19-4.65,0.53c-0.75,0.24-1.51,0.47-2.25,0.75c-0.72,0.35-1.47,0.63-2.16,1.04
		c-0.7,0.43-1.38,0.79-2.11,1.27c-0.72,0.48-1.45,0.95-2.18,1.4c-1.47,0.91-2.94,1.78-4.43,2.63c-2.97,1.71-5.98,3.31-8.95,4.98
		L124.49,17.24z"/>
</g>
<g>
	<path class="st2" d="M124.76,17.34c2.98,1.67,5.99,3.27,8.95,4.98c1.48,0.85,2.97,1.72,4.43,2.63c0.73,0.45,1.46,0.92,2.18,1.4
		c0.72,0.48,1.41,0.84,2.11,1.27c0.69,0.41,1.45,0.69,2.16,1.04c0.74,0.28,1.5,0.51,2.25,0.75c1.53,0.34,3.08,0.6,4.65,0.53
		c3.12-0.03,6.22-0.84,9.15-2.17c2.94-1.31,5.68-3.13,8.32-5.1c0.67-0.48,1.33-0.98,1.99-1.48c0.66-0.49,1.33-1,2.03-1.49
		c1.39-1,2.81-1.94,4.23-2.88c2.86-1.87,5.8-3.63,8.78-5.33c2.98-1.69,6.04-3.3,9.23-4.69l0.3,0.42c-2.34,2.57-4.86,4.92-7.43,7.19
		c-2.57,2.27-5.19,4.45-7.88,6.54c-2.7,2.08-5.41,4.08-8.45,5.95c-3.03,1.82-6.22,3.43-9.61,4.68c-3.37,1.27-7.07,1.99-10.77,1.77
		c-1.85-0.09-3.67-0.53-5.42-1.08c-0.85-0.34-1.71-0.68-2.52-1.08c-0.78-0.46-1.6-0.86-2.34-1.37c-0.72-0.53-1.48-1.06-2.14-1.59
		c-0.66-0.53-1.32-1.05-1.99-1.56c-1.34-1.02-2.71-2.02-4.1-3c-2.78-1.95-5.62-3.87-8.38-5.88L124.76,17.34z"/>
</g>
</svg>
