<?xml version="1.0" encoding="utf-8"?>
<!-- Generator: Adobe Illustrator 25.4.1, SVG Export Plug-In . SVG Version: 6.00 Build 0)  -->
<svg version="1.1" id="Layer_1" xmlns="http://www.w3.org/2000/svg" xmlns:xlink="http://www.w3.org/1999/xlink" x="0px" y="0px"
	 viewBox="0 0 152.89 47.47" style="enable-background:new 0 0 152.89 47.47;" xml:space="preserve">
<style type="text/css">
	.st0{fill:#FFFFFF;}
</style>
<g>
	<g>
		<path class="st0" d="M13.74,44.23L1.71,20.65h2.83L15.83,43.1h0.05l11.33-22.45h2.83L17.22,45.51h-1.34
			C14.88,45.51,14.17,45.09,13.74,44.23z"/>
		<path class="st0" d="M36.38,45.01c-0.45-0.33-0.67-0.79-0.67-1.39V20.65h22.41v1.71H38.44v9.59h18.19v1.71H38.44v10.12h19.68v1.74
			H38.24C37.45,45.51,36.83,45.35,36.38,45.01z"/>
		<path class="st0" d="M73.73,22.35H62.69v-1.71h24.8v1.71H76.46v23.16h-2.73L73.73,22.35L73.73,22.35z"/>
		<path class="st0" d="M102.7,21.93L90.68,45.51h2.83l11.28-22.45h0.05l11.33,22.45h2.83l-12.82-24.87h-1.34
			C103.85,20.65,103.13,21.07,102.7,21.93z"/>
		<path class="st0" d="M150.02,46.65l-3.78-2.67c-2.05,1.21-4.47,1.81-7.26,1.81h-5.17c-2.22,0-4.17-0.36-5.84-1.08
			c-1.67-0.72-2.97-1.74-3.9-3.05c-0.93-1.31-1.39-2.83-1.39-4.53v-8.1c0-1.73,0.47-3.25,1.41-4.55c0.94-1.3,2.27-2.31,3.98-3.04
			c1.71-0.72,3.67-1.08,5.89-1.08h5.17c2.22,0,4.18,0.36,5.89,1.08c1.71,0.72,3.02,1.73,3.95,3.04c0.93,1.3,1.39,2.82,1.39,4.55
			v8.07c0,2.18-0.81,4.05-2.43,5.61l3.78,2.67L150.02,46.65z M144.4,42.67l-5.17-3.66l1.69-1.24l5.07,3.59
			c1.1-1.18,1.64-2.61,1.64-4.26v-8.07c0-2.08-0.79-3.76-2.36-5.03c-1.57-1.27-3.64-1.9-6.19-1.9h-5.07c-2.55,0-4.62,0.64-6.21,1.9
			c-1.59,1.27-2.39,2.94-2.39,5.03v8.1c0,2.06,0.77,3.72,2.31,4.99c1.54,1.27,3.59,1.9,6.14,1.9h5.02
			C141,44.02,142.84,43.57,144.4,42.67z"/>
	</g>
	<g>
		<path class="st0" d="M60.07,8.06c1.3-0.94,2.63-1.84,3.93-2.76c0.65-0.46,1.29-0.93,1.92-1.41c0.32-0.24,0.63-0.48,0.93-0.73
			c0.31-0.25,0.67-0.5,1-0.74c0.34-0.24,0.73-0.43,1.1-0.64c0.38-0.18,0.78-0.35,1.18-0.51c0.82-0.26,1.67-0.47,2.54-0.51
			c1.74-0.1,3.47,0.24,5.05,0.83c1.59,0.59,3.08,1.35,4.5,2.19c1.42,0.88,2.7,1.81,3.96,2.79c1.26,0.98,2.49,2.01,3.69,3.07
			c1.2,1.06,2.38,2.16,3.48,3.37l-0.14,0.2c-1.5-0.65-2.93-1.4-4.33-2.2c-1.4-0.8-2.77-1.62-4.12-2.5
			c-0.67-0.44-1.33-0.89-1.98-1.35c-0.33-0.23-0.64-0.47-0.95-0.7c-0.31-0.24-0.62-0.47-0.93-0.7c-1.23-0.92-2.52-1.77-3.9-2.39
			c-1.37-0.62-2.83-1-4.29-1.02c-0.73-0.03-1.46,0.09-2.18,0.25c-0.35,0.11-0.71,0.22-1.06,0.35c-0.34,0.16-0.69,0.3-1.01,0.49
			c-0.33,0.2-0.65,0.37-0.99,0.6c-0.34,0.22-0.68,0.44-1.02,0.66c-0.69,0.43-1.38,0.84-2.08,1.23c-1.39,0.8-2.8,1.55-4.2,2.33
			L60.07,8.06z"/>
	</g>
	<g>
		<path class="st0" d="M60.19,8.1c1.39,0.78,2.81,1.53,4.2,2.33c0.7,0.4,1.39,0.81,2.08,1.23c0.34,0.21,0.68,0.43,1.02,0.66
			c0.34,0.22,0.66,0.4,0.99,0.6c0.32,0.19,0.68,0.32,1.01,0.49c0.35,0.13,0.7,0.24,1.06,0.35c0.72,0.16,1.44,0.28,2.18,0.25
			c1.46-0.02,2.92-0.39,4.29-1.02c1.38-0.62,2.66-1.47,3.9-2.39c0.32-0.22,0.62-0.46,0.93-0.7c0.31-0.23,0.62-0.47,0.95-0.7
			c0.65-0.47,1.31-0.91,1.98-1.35c1.34-0.88,2.72-1.7,4.12-2.5c1.4-0.79,2.83-1.55,4.33-2.2l0.14,0.2c-1.1,1.21-2.28,2.31-3.48,3.37
			c-1.2,1.06-2.43,2.09-3.69,3.07c-1.27,0.98-2.54,1.91-3.96,2.79c-1.42,0.85-2.92,1.61-4.5,2.19c-1.58,0.6-3.31,0.93-5.05,0.83
			c-0.87-0.04-1.72-0.25-2.54-0.51c-0.4-0.16-0.8-0.32-1.18-0.51c-0.37-0.22-0.75-0.4-1.1-0.64c-0.34-0.25-0.7-0.5-1-0.74
			c-0.31-0.25-0.62-0.49-0.93-0.73c-0.63-0.48-1.27-0.95-1.92-1.41c-1.3-0.92-2.63-1.81-3.93-2.76L60.19,8.1z"/>
	</g>
</g>
</svg>
